:SAMPLES-PER-SECOND 30
:FULLY-SPECIFIED
:DEGREES
1313
root  10.4233 37.0651 -8.95907 34.4972 82.1795 33.3404
RightUpLeg  -35.6102 -13.7636 -10.7896
RightLeg  55.4797 2.62821 3.66229
RightFoot  -4.60931 -0.88423 14.4855
RightToes  0.000481921 0.542163 -0.142578
Spine  31.3049 -0.294105 2.88174
Spine1  -2.49954 0.558532 -0.330844
HEad  -21.8847 -2.20367 -0.149553
LeftShoulder1  8.74049 -14.4468 -42.2919
LeftArm  5.99145 -2.58887 -38.2902
LeftForeArm  -176.393 -60.6493 -163.618
LeftHand  -0.25398 0.0180481 5.50724
RightShoulder  5.18736 10.4485 31.2295
RightArm  6.81712 -1.65676 44.1012
RightForeArm  164.434 63.6329 159.567
RightHand  -1.41086 3.78658 -18.0345
LeftUpLeg  -28.0017 12.6866 -5.7806
LeftLeg  43.0393 7.58991 7.92778
LeftFoot  -14.9573 0.01274 -2.43926
LeftToes  1.06245e-005 4.65868e-005 -8.65517e-006
1314
root  10.4413 37.044 -8.7879 34.5293 82.4465 33.729
RightUpLeg  -35.147 -11.2569 -13.5139
RightLeg  55.9389 1.56133 2.05452
RightFoot  -5.21513 -0.773738 13.6885
RightToes  0.000481921 0.542163 -0.142578
Spine  31.7145 -0.718847 3.37323
Spine1  -2.66773 0.328205 -0.718721
HEad  -21.9998 -1.91639 -0.769103
LeftShoulder1  8.7506 -14.4772 -42.2675
LeftArm  5.76707 -2.47246 -38.0925
LeftForeArm  -176.712 -60.7543 -163.522
LeftHand  -0.25398 0.0180481 5.50724
RightShoulder  5.19924 10.4728 31.2501
RightArm  6.92675 -1.62939 44.223
RightForeArm  164.553 63.6424 159.571
RightHand  -1.41653 3.82118 -18.0393
LeftUpLeg  -27.672 12.5715 -5.28799
LeftLeg  43.2463 7.48579 7.88112
LeftFoot  -14.9507 0.0119588 -2.46375
LeftToes  1.06245e-005 4.65868e-005 -8.65517e-006
1315
root  10.475 37.0704 -8.56168 36.332 82.9029 35.6602
RightUpLeg  -34.2551 -9.02245 -16.0459
RightLeg  55.2251 -2.13943 -3.71089
RightFoot  -6.31586 -0.477656 9.82092
RightToes  0.000481921 0.542163 -0.142578
Spine  31.9581 -1.15919 3.82668
Spine1  -3.09586 -0.0016277 -0.83114
HEad  -21.8081 -1.73701 -1.13003
LeftShoulder1  8.7636 -14.5078 -42.2576
LeftArm  5.79439 -2.28081 -38.053
LeftForeArm  -176.874 -60.9218 -163.398
LeftHand  -0.25398 0.0180481 5.50724
RightShoulder  5.22186 10.4557 31.4596
RightArm  7.00201 -1.87097 44.016
RightForeArm  164.611 63.5171 159.683
RightHand  -1.45223 3.97104 -18.1985
LeftUpLeg  -27.4032 12.4844 -4.81275
LeftLeg  43.0724 7.24008 7.5945
LeftFoot  -14.6865 0.0149247 -2.5056
LeftToes  1.06245e-005 4.65868e-005 -8.65517e-006
1316
root  10.5153 37.119 -8.25776 39.1318 83.1507 38.4124
RightUpLeg  -32.9451 -7.36638 -18.1254
RightLeg  53.1027 -6.63266 -9.74104
RightFoot  -7.33537 -0.220609 4.89573
RightToes  0.000481921 0.542163 -0.142578
Spine  32.1435 -1.39833 3.9681
Spine1  -3.67728 -0.217409 -0.849564
HEad  -21.6472 -1.67027 -1.16785
LeftShoulder1  8.78068 -14.5068 -42.3484
LeftArm  6.05617 -2.14976 -38.1018
LeftForeArm  -176.889 -61.0329 -163.323
LeftHand  -0.25398 0.0180481 5.50724
RightShoulder  5.24019 10.4238 31.6785
RightArm  6.9548 -2.21413 43.6329
RightForeArm  164.679 63.3613 159.82
RightHand  -1.4551 3.98232 -18.2121
LeftUpLeg  -27.1888 12.628 -4.41907
LeftLeg  42.6419 6.78725 7.04942
LeftFoot  -14.2698 0.0139099 -2.80415
LeftToes  1.06245e-005 4.65868e-005 -8.65517e-006
1317
root  10.5593 37.1902 -7.86566 42.2011 83.2179 41.3456
RightUpLeg  -30.7876 -6.63414 -19.6536
RightLeg  48.743 -10.1545 -12.5079
RightFoot  -7.87681 -0.119836 2.28674
RightToes  0.000481921 0.542163 -0.142578
Spine  32.1654 -1.46456 3.87628
Spine1  -4.03869 -0.319173 -0.817751
HEad  -21.7563 -1.68296 -1.05031
LeftShoulder1  8.80858 -14.5157 -42.4697
LeftArm  6.40856 -2.12574 -38.1356
LeftForeArm  -176.825 -61.0316 -163.329
LeftHand  -0.25398 0.0180481 5.50724
RightShoulder  5.24108 10.3996 31.7508
RightArm  6.77823 -2.48593 43.3237
RightForeArm  164.746 63.2735 159.899
RightHand  -1.43535 3.90494 -18.1153
LeftUpLeg  -26.9091 12.811 -4.00167
LeftLeg  41.9261 6.36621 6.48525
LeftFoot  -13.7482 0.0162073 -3.1461
LeftToes  1.06245e-005 4.65868e-005 -8.65517e-006
1318
root  10.613 37.2637 -7.365 46.9396 83.1694 45.844
RightUpLeg  -28.0137 -6.98824 -20.846
RightLeg  42.9381 -11.5984 -11.6447
RightFoot  -7.44955 -0.214952 4.67453
RightToes  0.000481921 0.542163 -0.142578
Spine  31.79 -1.35423 3.36863
Spine1  -3.99439 -0.389668 -0.568102
HEad  -21.9875 -1.78256 -0.918933
LeftShoulder1  8.83551 -14.5675 -42.4778
LeftArm  6.75949 -2.18025 -38.1905
LeftForeArm  -176.66 -61.0158 -163.354
LeftHand  -0.25398 0.0180481 5.50724
RightShoulder  5.22293 10.3634 31.7183
RightArm  6.54329 -2.66649 43.1867
RightForeArm  164.723 63.2633 159.905
RightHand  -1.44711 3.95266 -18.1698
LeftUpLeg  -26.6442 12.7559 -3.62289
LeftLeg  41.0504 6.21683 6.16187
LeftFoot  -13.117 0.0246349 -3.48423
LeftToes  1.06245e-005 4.65868e-005 -8.65517e-006
1319
root  10.6679 37.333 -6.75288 52.1332 82.8425 50.5929
RightUpLeg  -25.9919 -8.29008 -21.5852
RightLeg  38.4296 -10.9644 -9.45114
RightFoot  -6.47622 -0.481851 10.2858
RightToes  0.000481921 0.542163 -0.142578
Spine  31.0726 -1.01984 2.48485
Spine1  -3.79778 -0.347646 -0.221885
HEad  -22.1537 -1.93864 -0.85555
LeftShoulder1  8.8568 -14.6389 -42.408
LeftArm  7.0388 -2.27343 -38.2264
LeftForeArm  -176.459 -61.0486 -163.351
LeftHand  -0.25398 0.0180481 5.50724
RightShoulder  5.19282 10.3176 31.6245
RightArm  6.34329 -2.81238 43.2708
RightForeArm  164.637 63.2918 159.873
RightHand  -1.47677 4.06482 -18.3216
LeftUpLeg  -26.5181 12.5535 -3.27964
LeftLeg  40.0571 6.17647 5.92706
LeftFoot  -12.3095 0.0387036 -4.19782
LeftToes  1.06245e-005 4.65868e-005 -8.65517e-006
1320
root  10.6977 37.4489 -6.07615 52.9288 82.3333 50.7825
RightUpLeg  -25.7438 -10.0714 -21.1372
RightLeg  36.8361 -9.43144 -7.75392
RightFoot  -6.02887 -0.674512 13.6312
RightToes  0.000481921 0.542163 -0.142578
Spine  30.4366 -0.647542 2.04266
Spine1  -3.74227 -0.0842826 -0.261747
HEad  -22.3546 -1.96702 -0.966758
LeftShoulder1  8.87511 -14.6853 -42.3858
LeftArm  7.05734 -2.36006 -38.0648
LeftForeArm  -176.439 -61.0174 -163.373
LeftHand  -0.25398 0.0180481 5.50724
RightShoulder  5.17551 10.333 31.4567
RightArm  6.31001 -2.78276 43.5996
RightForeArm  164.61 63.3424 159.828
RightHand  -1.471 4.03644 -18.304
LeftUpLeg  -26.3272 12.4544 -2.57681
LeftLeg  38.6795 6.1805 5.66255
LeftFoot  -11.2724 0.0708035 -5.25631
LeftToes  1.06245e-005 4.65868e-005 -8.65517e-006
1321
root  10.6923 37.6372 -5.36746 48.695 82.0881 46.071
RightUpLeg  -26.4742 -11.7319 -19.2287
RightLeg  36.8484 -8.09777 -6.72383
RightFoot  -6.16364 -0.596931 12.2174
RightToes  0.000481921 0.542163 -0.142578
Spine  30.2472 -0.541078 2.55396
Spine1  -3.81749 0.219871 -0.734491
HEad  -22.6483 -1.66586 -1.24485
LeftShoulder1  8.87255 -14.689 -42.3635
LeftArm  6.64695 -2.34276 -37.7376
LeftForeArm  -176.686 -60.8668 -163.45
LeftHand  -0.25398 0.0180481 5.50724
RightShoulder  5.20032 10.4425 31.3395
RightArm  6.59575 -2.29602 43.9666
RightForeArm  164.614 63.4502 159.739
RightHand  -1.44153 3.92772 -18.1485
LeftUpLeg  -25.7421 12.451 -1.11576
LeftLeg  36.8728 6.56623 5.63079
LeftFoot  -10.0365 0.129417 -6.11658
LeftToes  1.06245e-005 4.65868e-005 -8.65517e-006
1322
root  10.6703 37.85 -4.61474 43.5237 82.3805 40.792
RightUpLeg  -26.6568 -13.2182 -16.6458
RightLeg  36.5559 -7.25182 -5.99973
RightFoot  -6.2002 -0.437321 8.79559
RightToes  0.000481921 0.542163 -0.142578
Spine  30.4136 -0.736547 3.4327
Spine1  -3.94223 0.240601 -0.898435
HEad  -22.67 -1.09037 -1.41688
LeftShoulder1  8.84565 -14.6864 -42.2324
LeftArm  5.97868 -2.11558 -37.5706
LeftForeArm  -176.992 -60.8043 -163.464
LeftHand  -0.25398 0.0180481 5.50724
RightShoulder  5.25947 10.5565 31.4584
RightArm  7.17385 -1.45504 44.0368
RightForeArm  164.503 63.6443 159.564
RightHand  -1.44084 3.9474 -18.1036
LeftUpLeg  -24.7175 12.401 0.987297
LeftLeg  34.9216 7.1479 5.70005
LeftFoot  -8.61971 0.214276 -6.82707
LeftToes  1.06245e-005 4.65868e-005 -8.65517e-006
1323
root  10.6593 38.037 -3.81812 40.4938 83.0372 37.9175
RightUpLeg  -26.0294 -14.9979 -14.3219
RightLeg  35.7911 -6.41074 -5.20321
RightFoot  -6.16539 -0.34041 6.59039
RightToes  0.000481921 0.542163 -0.142578
Spine  30.523 -0.965976 3.93428
Spine1  -4.15522 -0.0198967 -0.31016
HEad  -22.0234 -0.505872 -1.17412
LeftShoulder1  8.84133 -14.7302 -42.1015
LeftArm  5.49967 -1.73407 -37.7304
LeftForeArm  -177.138 -61.0033 -163.32
LeftHand  -0.25398 0.0180481 5.50724
RightShoulder  5.30648 10.5819 31.7266
RightArm  7.74415 -0.861729 43.7838
RightForeArm  164.273 63.8668 159.351
RightHand  -1.4661 4.06839 -18.187
LeftUpLeg  -23.4558 12.23 3.18091
LeftLeg  32.8993 7.12156 5.29797
LeftFoot  -7.0796 0.339147 -7.93893
LeftToes  1.06245e-005 4.65868e-005 -8.65517e-006
1324
root  10.6739 38.2162 -3.01071 39.4773 83.5176 36.9688
RightUpLeg  -25.3717 -17.2199 -12.4453
RightLeg  35.0852 -5.23685 -4.20256
RightFoot  -6.46419 -0.279027 5.50521
RightToes  0.000481921 0.542163 -0.142578
Spine  30.3135 -1.03937 4.01477
Spine1  -4.3865 -0.233925 0.314247
HEad  -20.9388 -0.0480914 -0.563846
LeftShoulder1  8.88377 -14.7989 -42.1477
LeftArm  5.48625 -1.42681 -38.0172
LeftForeArm  -177.085 -61.2491 -163.161
LeftHand  -0.25398 0.0180481 5.50724
RightShoulder  5.30959 10.5452 31.8478
RightArm  8.0457 -0.903963 43.5175
RightForeArm  164.083 63.9996 159.216
RightHand  -1.47443 4.10449 -18.2208
LeftUpLeg  -22.1563 11.7911 4.93252
LeftLeg  30.5801 7.05026 4.82156
LeftFoot  -5.38691 0.495895 -8.90563
LeftToes  1.06245e-005 4.65868e-005 -8.65517e-006
1325
root  10.703 38.4176 -2.23779 38.2038 83.5846 35.5063
RightUpLeg  -25.0515 -19.3344 -10.6979
RightLeg  34.2902 -3.97375 -3.17032
RightFoot  -6.8839 -0.209489 4.18064
RightToes  0.000481921 0.542163 -0.142578
Spine  29.8293 -1.04544 4.12658
Spine1  -4.47602 -0.24769 0.239231
HEad  -20.112 0.373123 -0.00805023
LeftShoulder1  8.9183 -14.808 -42.3009
LeftArm  5.83518 -1.33422 -38.2594
LeftForeArm  -176.819 -61.1913 -163.223
LeftHand  -0.25398 0.0180481 5.50724
RightShoulder  5.27728 10.5054 31.7239
RightArm  8.13954 -1.26706 43.4343
RightForeArm  164.022 63.9808 159.226
RightHand  -1.46449 4.05809 -18.1864
LeftUpLeg  -21.1359 11.1457 6.11284
LeftLeg  28.3341 9.07817 5.59178
LeftFoot  -3.30377 0.596282 -8.25473
LeftToes  1.06245e-005 4.65868e-005 -8.65517e-006
